# xmcd
#
# Track frame offsets:
#	182
#	14932
#	30982
#	50482
#
# Disc length: 884 seconds
#
# Revision: 0
# Processed by: cddbd v1.4PL0 Copyright (c) Steve Scherf et al.
# Submitted via: audiograbber 1.81.03
#
DISCID=2d037204
DTITLE=Sharyn Lee - Sharyn Lee
DYEAR=1995
DGENRE=Country
TTITLE0=Baby Blues
TTITLE1=It's Time
TTITLE2=Lovin' Cowboy
TTITLE3=(We'll Have A) Girl's Night Out
EXTD=
EXTT0=
EXTT1=
EXTT2=
EXTT3=
PLAYORDER=
